<svg xmlns:xlink="http://www.w3.org/1999/xlink" viewBox="0 0 2255 1597" xmlns="http://www.w3.org/2000/svg" xmlns:ev="http://www.w3.org/2001/xml-events" width="2255" height="1597"><defs/><g transform="translate(5.5,5.5)" id="page1"><rect y="0" x="0" width="2245" height="1587" fill="#ffffff"/><g transform="translate(113.000000,697.700787)" id="group1"><g transform="translate(0.000000,-0.000000)" id="shape2"><text style="fill:#454545;font-family:微软雅黑;font-size:14.00pt;font-weight:bold" xml:space="preserve"><tspan y="45.5" x="118.2">Vision Transformer</tspan></text></g><g transform="translate(106.000000,143.000000)" id="shape3"><path stroke-width="1" stroke="#3c91d3" d="M100.0,60.0L100.0,.0L.0,.0L.0,60.0L100.0,60.0z" fill="#ffffff" fill-rule="nonzero"/><text style="fill:#454545;font-family:微软雅黑;font-size:10.00pt;font-weight:bold" xml:space="preserve"><tspan y="26.0" x="29.0">Image</tspan><tspan y="45.0" x="5.5">B, 224, 224, 3</tspan></text></g><g transform="translate(326.000000,143.000000)" id="shape4"><path stroke-width="1" stroke="#3c91d3" d="M205.0,60.0L205.0,.0L.0,.0L.0,60.0L205.0,60.0z" fill="#ffffff" fill-rule="nonzero"/><text style="fill:#454545;font-family:微软雅黑;font-size:10.00pt;font-weight:bold" xml:space="preserve"><tspan y="16.5" x="48.0">Flattened Patchs</tspan><tspan y="35.5" x="56.0">B, patch_num, </tspan><tspan y="54.5" x="50.0">pixel_per_patch</tspan></text></g><g transform="translate(206.000000,173.000000)" id="shape5"><path stroke-width="3" stroke="#29699b" d="M.0,.0L113.1,.0" fill="none"/><path stroke-width="1" stroke="#29699b" d="M113.1,-3.5L120.0,.0L113.1,3.5L113.1,-3.5" stroke-linecap="round" fill="#29699b"/><rect y="-63.5" x="38.1" width="42.0" height="19.0" fill="#ffffff"/><rect y="-44.5" x="52.6" width="13.0" height="19.0" fill="#ffffff"/><rect y="-25.5" x="21.6" width="75.0" height="19.0" fill="#ffffff"/><text style="fill:#29699b;font-family:微软雅黑;font-size:10.00pt" xml:space="preserve"><tspan y="-48.5" x="38.1">Unfold</tspan><tspan y="-29.5" x="52.6">or</tspan><tspan y="-10.5" x="21.6">Convolution</tspan></text></g><g transform="translate(680.000000,143.000000)" id="shape6"><path stroke-width="1" stroke="#3c91d3" d="M182.0,60.0L182.0,.0L.0,.0L.0,60.0L182.0,60.0z" fill="#ffffff" fill-rule="nonzero"/><text style="fill:#454545;font-family:微软雅黑;font-size:10.00pt;font-weight:bold" xml:space="preserve"><tspan y="26.0" x="32.0">patch embedding</tspan><tspan y="45.0" x="37.5">B, patch_num, D</tspan></text></g><g transform="matrix(0.000000,1.000000,-1.000000,0.000000,954.960530,33.289759)" id="shape7"><path stroke-width="1" stroke="#389ab6" d="M55.5,151.6L109.7,184.0M111.0,93.0L111.0,151.6L.0,151.6L.0,93.0" fill="none"/><text transform="matrix(0.00,-1.00,1.00,0.00,55.5,55.5)" style="fill:#454545;font-family:微软雅黑;font-size:10.00pt;font-weight:bold" xml:space="preserve"><tspan y="-32.5" x="-77.8">D is dimension of </tspan><tspan y="-13.5" x="-63.8">model. use D </tspan><tspan y="5.5" x="-63.8">dimension to </tspan><tspan y="24.5" x="-69.8">represent each </tspan><tspan y="43.5" x="-40.8">patch.</tspan></text></g><g transform="translate(531.000000,173.000000)" id="shape8"><path stroke-width="3" stroke="#29699b" d="M.0,.0L142.1,.0" fill="none"/><path stroke-width="1" stroke="#29699b" d="M142.1,-3.5L149.0,.0L142.1,3.5L142.1,-3.5" stroke-linecap="round" fill="#29699b"/></g><g transform="translate(545.500000,122.000000)" id="shape9"><text style="fill:#454545;font-family:微软雅黑;font-size:10.00pt;font-weight:bold" xml:space="preserve"><tspan y="23.0" x="16.0">MLP for each </tspan><tspan y="42.0" x="41.5">patch</tspan></text></g><g transform="translate(733.000000,225.000000)" id="shape10"><path stroke-width="1" stroke="#3c91d3" d="M129.0,60.0L129.0,.0L.0,.0L.0,60.0L129.0,60.0z" fill="#ffffff" fill-rule="nonzero"/><text style="fill:#454545;font-family:微软雅黑;font-size:10.00pt;font-weight:bold" xml:space="preserve"><tspan y="16.5" x="35.0">cls token </tspan><tspan y="35.5" x="26.0">embedding</tspan><tspan y="54.5" x="43.0">B, 1, D</tspan></text></g><g transform="translate(994.500000,180.000000)" id="shape11"><path stroke-width="1" stroke="#3c91d3" d="M139.5,60.0L139.5,.0L.0,.0L.0,60.0L139.5,60.0z" fill="#ffffff" fill-rule="nonzero"/><text style="fill:#454545;font-family:微软雅黑;font-size:10.00pt;font-weight:bold" xml:space="preserve"><tspan y="26.0" x="31.3">embedding</tspan><tspan y="45.0" x="7.3">B, patch_num+1, D</tspan></text></g><g transform="translate(862.000000,255.000000)" id="shape12"><path stroke-width="3" stroke="#29699b" d="M.0,.0L45.0,.0L45.0,-45.0L125.6,-45.0" fill="none"/><path stroke-width="1" stroke="#29699b" d="M125.6,-48.5L132.5,-45.0L125.6,-41.5L125.6,-48.5" stroke-linecap="round" fill="#29699b"/></g><g transform="translate(862.000000,173.000000)" id="shape13"><path stroke-width="3" stroke="#29699b" d="M.0,.0L45.0,.0L45.0,37.0L125.6,37.0" fill="none"/><path stroke-width="1" stroke="#29699b" d="M125.6,33.5L132.5,37.0L125.6,40.5L125.6,33.5" stroke-linecap="round" fill="#29699b"/><rect y="27.5" x="27.6" width="42.0" height="19.0" fill="#ffffff"/><text style="fill:#29699b;font-family:微软雅黑;font-size:10.00pt" xml:space="preserve"><tspan y="42.5" x="27.6">concat</tspan></text></g><g transform="translate(666.000000,300.000000)" id="shape14"><path stroke-width="1" stroke="#3c91d3" d="M200.0,60.0L200.0,.0L.0,.0L.0,60.0L200.0,60.0z" fill="#ffffff" fill-rule="nonzero"/><text style="fill:#454545;font-family:微软雅黑;font-size:10.00pt;font-weight:bold" xml:space="preserve"><tspan y="26.0" x="30.0">posittion embedding</tspan><tspan y="45.0" x="54.5">max_token, D</tspan></text></g><path stroke-width="3" transform="translate(666.000000,313.140000)" id="shape15" stroke="#29699b" d="M.0,.0L.0,.0" fill="none"/><g transform="translate(1134.000000,210.000000)" id="shape16"><path stroke-width="3" stroke="#29699b" d="M.0,.0L28.1,.0" fill="none"/><path stroke-width="1" stroke="#29699b" d="M28.1,-3.5L35.0,.0L28.1,3.5L28.1,-3.5" stroke-linecap="round" fill="#29699b"/></g><g transform="translate(1168.500000,180.000000)" id="shape17"><path stroke-width="1" stroke="#3c91d3" d="M129.0,60.0L129.0,.0L.0,.0L.0,60.0L129.0,60.0z" fill="#ffffff" fill-rule="nonzero"/><text style="fill:#454545;font-family:微软雅黑;font-size:10.00pt;font-weight:bold" xml:space="preserve"><tspan y="26.0" x="23.0">Transformer </tspan><tspan y="45.0" x="37.5">Encoder</tspan></text></g><g transform="translate(1168.500000,255.000000)" id="shape18"><path stroke-width="1" stroke="#3c91d3" d="M129.0,53.0L129.0,.0L.0,.0L.0,53.0L129.0,53.0z" fill="#ffffff" fill-rule="nonzero"/><text style="fill:#454545;font-family:微软雅黑;font-size:10.00pt;font-weight:bold" xml:space="preserve"><tspan y="22.5" x="17.5">cls coordinate </tspan><tspan y="41.5" x="42.5">output</tspan></text></g><g transform="translate(866.000000,330.000000)" id="shape19"><path stroke-width="3" stroke="#29699b" d="M.0,.0L79.0,.0L79.0,-120.0L121.6,-120.0" fill="none"/><path stroke-width="1" stroke="#29699b" d="M121.6,-123.5L128.5,-120.0L121.6,-116.5L121.6,-123.5" stroke-linecap="round" fill="#29699b"/></g><g transform="translate(892.000000,168.000000)" id="shape20"><text style="fill:#454545;font-family:微软雅黑;font-size:10.00pt;font-weight:bold" xml:space="preserve"><tspan y="23.0" x="26.5">broadcast</tspan></text></g><g transform="translate(1233.000000,240.000000)" id="shape21"><path stroke-width="3" stroke="#29699b" d="M.0,.0L.0,8.1" fill="none"/><path stroke-width="1" stroke="#29699b" d="M3.5,8.1L.0,15.0L-3.5,8.1L3.5,8.1" stroke-linecap="round" fill="#29699b"/></g><g transform="translate(1297.500000,281.500000)" id="shape22"><path stroke-width="3" stroke="#29699b" d="M.0,.0L63.1,.0" fill="none"/><path stroke-width="1" stroke="#29699b" d="M63.1,-3.5L70.0,.0L63.1,3.5L63.1,-3.5" stroke-linecap="round" fill="#29699b"/><rect y="-9.5" x="19.0" width="28.0" height="19.0" fill="#ffffff"/><text style="fill:#29699b;font-family:微软雅黑;font-size:10.00pt" xml:space="preserve"><tspan y="5.5" x="19.0">MLP</tspan></text></g><g transform="translate(1361.000000,255.000000)" id="shape23"><path stroke-width="1" stroke="#e67036" d="M115.8,53.0L129.0,.0L13.3,.0L.0,53.0L115.8,53.0z" fill="#ffffff" fill-rule="nonzero"/><text style="fill:#454545;font-family:微软雅黑;font-size:10.00pt;font-weight:bold" xml:space="preserve"><tspan y="32.0" x="48.0">Class</tspan></text></g></g></g></svg>